<svg width="61" height="60" viewBox="0 0 61 60" fill="none" xmlns="http://www.w3.org/2000/svg">
<path d="M49.855 6.5625H10.4832C8.40143 6.5625 6.71255 8.25 6.71255 10.3301V49.6699C6.71255 51.75 8.40143 53.4375 10.4832 53.4375H49.855C51.9368 53.4375 53.6257 51.75 53.6257 49.6699V10.3301C53.6257 8.25 51.9368 6.5625 49.855 6.5625ZM49.855 49.6875C23.5954 49.6816 10.4656 49.6758 10.4656 49.6699C10.4715 23.4316 10.4773 10.3125 10.4832 10.3125C36.7428 10.3184 49.8726 10.3242 49.8726 10.3301C49.8668 36.5684 49.8609 49.6875 49.855 49.6875ZM13.6674 24.1348H20.6282V46.5059H13.6674V24.1348ZM17.1507 21.0762C19.3732 21.0762 21.1852 19.2715 21.1852 17.0449C21.1852 16.5155 21.0809 15.9913 20.8781 15.5022C20.6754 15.0131 20.3782 14.5687 20.0036 14.1944C19.6289 13.8201 19.1842 13.5231 18.6947 13.3205C18.2052 13.1179 17.6805 13.0137 17.1507 13.0137C16.6209 13.0137 16.0963 13.1179 15.6068 13.3205C15.1173 13.5231 14.6725 13.8201 14.2979 14.1944C13.9232 14.5687 13.6261 15.0131 13.4233 15.5022C13.2206 15.9913 13.1162 16.5155 13.1162 17.0449C13.1103 19.2715 14.9165 21.0762 17.1507 21.0762ZM31.9459 35.4375C31.9459 32.5195 32.503 29.6953 36.1212 29.6953C39.6866 29.6953 39.7394 33.0293 39.7394 35.625V46.5059H46.6943V34.2363C46.6943 28.2129 45.3924 23.5781 38.3496 23.5781C34.966 23.5781 32.6966 25.4355 31.7642 27.1934H31.6703V24.1348H24.9911V46.5059H31.9459V35.4375Z" fill="#6EACFC"/>
</svg>
