<svg width="50" height="49" viewBox="0 0 50 49" fill="none" xmlns="http://www.w3.org/2000/svg">
<path d="M24.5805 3.651C12.7371 3.64622 3.14468 13.2261 3.14468 25.0502C3.14468 34.4004 9.14536 42.3486 17.5022 45.2675C18.6277 45.5498 18.4553 44.7507 18.4553 44.2052V40.4967C11.9565 41.2575 11.6931 36.9605 11.2573 36.2427C10.3761 34.7402 8.29291 34.3573 8.91548 33.6396C10.3953 32.8787 11.9038 33.831 13.6519 36.4102C14.9162 38.2812 17.3825 37.9654 18.6325 37.6543C18.9054 36.5298 19.4897 35.5249 20.2943 34.7449C13.5609 33.5391 10.7545 29.4334 10.7545 24.5526C10.7545 22.1839 11.5351 20.0067 13.0676 18.2505C12.0906 15.3555 13.1586 12.8768 13.3023 12.5083C16.0847 12.2595 18.9773 14.499 19.2024 14.676C20.7827 14.2501 22.5882 14.0252 24.6092 14.0252C26.6397 14.0252 28.45 14.2597 30.0448 14.6904C30.5859 14.2788 33.2678 12.3552 35.8539 12.5897C35.9928 12.9581 37.0368 15.3794 36.1173 18.2362C37.6689 19.9971 38.4591 22.1935 38.4591 24.5669C38.4591 29.4574 35.6336 33.5678 28.881 34.7545C29.4594 35.3228 29.9186 36.0006 30.2319 36.7483C30.5452 37.4959 30.7062 38.2985 30.7056 39.109V44.4923C30.744 44.923 30.7056 45.3489 31.424 45.3489C39.9054 42.4921 46.0114 34.4865 46.0114 25.055C46.0114 13.2261 36.4142 3.651 24.5805 3.651Z" fill="#6EACFC"/>
</svg>
