<svg width="271" height="20" viewBox="0 0 271 20" fill="none" xmlns="http://www.w3.org/2000/svg">
<path d="M10.368 19.408L0.12 13.456V10.384L10.368 4.432V8.656L4.752 11.896L10.368 15.16V19.408ZM11.4878 19V15.28L22.5518 1.72H23.8718V5.416L12.8078 19H11.4878ZM260.447 19.456V15.184L266.039 11.944L260.447 8.728V4.48L270.719 10.408V13.504L260.447 19.456Z" fill="#6EACFC"/>
<path d="M35.2418 19C34.2658 19 33.4258 18.656 32.7218 17.968C32.0338 17.264 31.6898 16.424 31.6898 15.448V13.216H35.4098V14.464C35.4098 14.992 35.4098 15.256 35.4098 15.256C35.4098 15.256 35.6738 15.256 36.2018 15.256H44.4098C44.9378 15.256 45.2018 15.256 45.2018 15.256C45.2018 15.256 45.2018 14.992 45.2018 14.464V1.72H48.9698V15.448C48.9698 16.424 48.6178 17.264 47.9138 17.968C47.2098 18.656 46.3778 19 45.4178 19H35.2418ZM55.0483 19C54.0883 19 53.2643 18.656 52.5763 17.968C51.9043 17.28 51.5683 16.464 51.5683 15.52V10.192H62.0083V9.544C62.0083 9.016 62.0083 8.752 62.0083 8.752C62.0083 8.752 61.7443 8.752 61.2163 8.752H51.5683V5.08H62.2003C63.1603 5.08 63.9763 5.424 64.6483 6.112C65.3363 6.8 65.6803 7.616 65.6803 8.56V19H55.0483ZM56.0323 15.328H62.0083V13.408H55.2403V14.536C55.2403 15.064 55.2403 15.328 55.2403 15.328C55.2403 15.328 55.5043 15.328 56.0323 15.328ZM68.0694 19V5.08H78.7014C79.6614 5.08 80.4774 5.424 81.1494 6.112C81.8374 6.8 82.1814 7.616 82.1814 8.56V19H78.5094V9.544C78.5094 9.016 78.5094 8.752 78.5094 8.752C78.5094 8.752 78.2454 8.752 77.7174 8.752H72.5334C72.0054 8.752 71.7414 8.752 71.7414 8.752C71.7414 8.752 71.7414 9.016 71.7414 9.544V19H68.0694ZM87.5164 19C86.5564 19 85.7324 18.656 85.0444 17.968C84.3724 17.28 84.0364 16.464 84.0364 15.52V8.56C84.0364 7.616 84.3724 6.8 85.0444 6.112C85.7324 5.424 86.5564 5.08 87.5164 5.08H94.5004V0.519999H98.1724V19H87.5164ZM88.5244 15.328H93.7084C94.2364 15.328 94.5004 15.328 94.5004 15.328C94.5004 15.328 94.5004 15.064 94.5004 14.536V9.544C94.5004 9.016 94.5004 8.752 94.5004 8.752C94.5004 8.752 94.2364 8.752 93.7084 8.752H88.5244C87.9964 8.752 87.7324 8.752 87.7324 8.752C87.7324 8.752 87.7324 9.016 87.7324 9.544V14.536C87.7324 15.064 87.7324 15.328 87.7324 15.328C87.7324 15.328 87.9964 15.328 88.5244 15.328ZM103.634 19C102.69 19 101.874 18.656 101.186 17.968C100.498 17.28 100.154 16.464 100.154 15.52V8.56C100.154 7.616 100.498 6.8 101.186 6.112C101.874 5.424 102.69 5.08 103.634 5.08H110.786C111.746 5.08 112.562 5.424 113.234 6.112C113.922 6.8 114.266 7.616 114.266 8.56V13.888H103.826V14.536C103.826 15.064 103.826 15.328 103.826 15.328C103.826 15.328 104.09 15.328 104.618 15.328H114.266V19H103.634ZM103.826 10.672H110.594V9.544C110.594 9.016 110.594 8.752 110.594 8.752C110.594 8.752 110.33 8.752 109.802 8.752H104.618C104.09 8.752 103.826 8.752 103.826 8.752C103.826 8.752 103.826 9.016 103.826 9.544V10.672ZM116.631 19V8.56C116.631 7.616 116.975 6.8 117.663 6.112C118.351 5.424 119.175 5.08 120.135 5.08H127.815V8.752H121.095C120.567 8.752 120.303 8.752 120.303 8.752C120.303 8.752 120.303 9.016 120.303 9.544V19H116.631ZM133.116 19C132.172 19 131.356 18.656 130.668 17.968C129.98 17.28 129.636 16.464 129.636 15.52V14.824H133.308V14.944C133.308 15.2 133.308 15.328 133.308 15.328C133.308 15.328 133.436 15.328 133.692 15.328H139.692C139.948 15.328 140.076 15.328 140.076 15.328C140.076 15.328 140.076 15.2 140.076 14.944V14.272C140.076 14.016 140.076 13.888 140.076 13.888C140.076 13.888 139.948 13.888 139.692 13.888H133.116C132.172 13.888 131.356 13.544 130.668 12.856C129.98 12.168 129.636 11.352 129.636 10.408V8.56C129.636 7.616 129.98 6.8 130.668 6.112C131.356 5.424 132.172 5.08 133.116 5.08H140.268C141.228 5.08 142.052 5.424 142.74 6.112C143.428 6.8 143.772 7.616 143.772 8.56V9.256H140.076V9.136C140.076 8.88 140.076 8.752 140.076 8.752C140.076 8.752 139.948 8.752 139.692 8.752H133.692C133.436 8.752 133.308 8.752 133.308 8.752C133.308 8.752 133.308 8.88 133.308 9.136V9.808C133.308 10.064 133.308 10.192 133.308 10.192C133.308 10.192 133.436 10.192 133.692 10.192H140.268C141.228 10.192 142.052 10.536 142.74 11.224C143.428 11.912 143.772 12.728 143.772 13.672V15.52C143.772 16.464 143.428 17.28 142.74 17.968C142.052 18.656 141.228 19 140.268 19H133.116ZM149.173 19C148.229 19 147.413 18.656 146.725 17.968C146.037 17.28 145.693 16.464 145.693 15.52V8.56C145.693 7.616 146.037 6.8 146.725 6.112C147.413 5.424 148.229 5.08 149.173 5.08H156.325C157.285 5.08 158.101 5.424 158.773 6.112C159.461 6.8 159.805 7.616 159.805 8.56V15.52C159.805 16.464 159.461 17.28 158.773 17.968C158.101 18.656 157.285 19 156.325 19H149.173ZM150.157 15.328H155.341C155.869 15.328 156.133 15.328 156.133 15.328C156.133 15.328 156.133 15.064 156.133 14.536V9.544C156.133 9.016 156.133 8.752 156.133 8.752C156.133 8.752 155.869 8.752 155.341 8.752H150.157C149.629 8.752 149.365 8.752 149.365 8.752C149.365 8.752 149.365 9.016 149.365 9.544V14.536C149.365 15.064 149.365 15.328 149.365 15.328C149.365 15.328 149.629 15.328 150.157 15.328ZM161.679 19V5.08H172.311C173.271 5.08 174.087 5.424 174.759 6.112C175.447 6.8 175.791 7.616 175.791 8.56V19H172.119V9.544C172.119 9.016 172.119 8.752 172.119 8.752C172.119 8.752 171.855 8.752 171.327 8.752H166.143C165.615 8.752 165.351 8.752 165.351 8.752C165.351 8.752 165.351 9.016 165.351 9.544V19H161.679ZM186.244 19V1.72H199.3C200.26 1.72 201.092 2.072 201.796 2.776C202.5 3.464 202.852 4.296 202.852 5.272V8.512C202.852 8.72 202.836 8.92 202.804 9.112C202.788 9.288 202.748 9.456 202.684 9.616C202.924 9.92 203.124 10.272 203.284 10.672C203.444 11.072 203.524 11.472 203.524 11.872V15.448C203.524 16.424 203.172 17.264 202.468 17.968C201.764 18.656 200.924 19 199.948 19H186.244ZM190.756 15.256H198.964C199.492 15.256 199.756 15.256 199.756 15.256C199.756 15.256 199.756 14.992 199.756 14.464V12.88C199.756 12.352 199.756 12.088 199.756 12.088C199.756 12.088 199.492 12.088 198.964 12.088H190.756C190.228 12.088 189.964 12.088 189.964 12.088C189.964 12.088 189.964 12.352 189.964 12.88V14.464C189.964 14.992 189.964 15.256 189.964 15.256C189.964 15.256 190.228 15.256 190.756 15.256ZM190.756 8.344H198.292C198.82 8.344 199.084 8.344 199.084 8.344C199.084 8.344 199.084 8.08 199.084 7.552V6.256C199.084 5.728 199.084 5.464 199.084 5.464C199.084 5.464 198.82 5.464 198.292 5.464H190.756C190.228 5.464 189.964 5.464 189.964 5.464C189.964 5.464 189.964 5.728 189.964 6.256V7.552C189.964 8.08 189.964 8.344 189.964 8.344C189.964 8.344 190.228 8.344 190.756 8.344ZM206.045 19V8.56C206.045 7.616 206.389 6.8 207.077 6.112C207.765 5.424 208.589 5.08 209.549 5.08H217.229V8.752H210.509C209.981 8.752 209.717 8.752 209.717 8.752C209.717 8.752 209.717 9.016 209.717 9.544V19H206.045ZM219.146 19V5.08H222.818V19H219.146ZM219.146 4.216V0.519999H222.818V4.216H219.146ZM228.628 19C227.668 19 226.844 18.656 226.156 17.968C225.468 17.28 225.124 16.464 225.124 15.52V0.951999H228.796V5.08H233.956V8.752H228.796V14.536C228.796 15.064 228.796 15.328 228.796 15.328C228.796 15.328 229.06 15.328 229.588 15.328H233.956V19H228.628ZM239.384 19C238.44 19 237.624 18.656 236.936 17.968C236.248 17.28 235.904 16.464 235.904 15.52V8.56C235.904 7.616 236.248 6.8 236.936 6.112C237.624 5.424 238.44 5.08 239.384 5.08H246.536C247.496 5.08 248.312 5.424 248.984 6.112C249.672 6.8 250.016 7.616 250.016 8.56V15.52C250.016 16.464 249.672 17.28 248.984 17.968C248.312 18.656 247.496 19 246.536 19H239.384ZM240.368 15.328H245.552C246.08 15.328 246.344 15.328 246.344 15.328C246.344 15.328 246.344 15.064 246.344 14.536V9.544C246.344 9.016 246.344 8.752 246.344 8.752C246.344 8.752 246.08 8.752 245.552 8.752H240.368C239.84 8.752 239.576 8.752 239.576 8.752C239.576 8.752 239.576 9.016 239.576 9.544V14.536C239.576 15.064 239.576 15.328 239.576 15.328C239.576 15.328 239.84 15.328 240.368 15.328Z" fill="white"/>
</svg>
